<svg width="128" height="57" viewBox="0 0 128 57" fill="none" xmlns="http://www.w3.org/2000/svg">
<path d="M88.3345 27.0865L89.0747 18.6748L118.796 11.1384L108.613 39.8603L100.311 39.8596L97.9372 32.2607L96.0325 32.0612L95.8623 30.2116L88.3345 27.0865Z" fill="url(#paint0_linear_109_199)"/>
<path d="M118.69 11.2449L95.9155 30.2642L96.0325 32.0612L97.9372 32.2607L118.69 11.2449Z" fill="url(#paint1_linear_109_199)"/>
<path d="M2.96109 47.0035V18.593H13.2849C16.3794 18.593 18.967 19.2332 21.0478 20.5137C23.1285 21.7675 24.6891 23.4748 25.7295 25.6356C26.7699 27.7697 27.2901 30.1439 27.2901 32.7582C27.2901 35.6393 26.7165 38.1469 25.5694 40.281C24.4223 42.4151 22.7951 44.0691 20.6876 45.2428C18.6069 46.4166 16.1393 47.0035 13.2849 47.0035H2.96109ZM21.728 32.7582C21.728 30.9176 21.3945 29.3036 20.7276 27.9164C20.0607 26.5026 19.1004 25.4089 17.8466 24.6352C16.5928 23.8349 15.0722 23.4348 13.2849 23.4348H8.48313V42.1617H13.2849C15.0989 42.1617 16.6328 41.7615 17.8866 40.9613C19.1404 40.1343 20.0874 39.0139 20.7276 37.6C21.3945 36.1595 21.728 34.5456 21.728 32.7582ZM38.3669 47.4036C36.6597 47.4036 35.1258 47.1235 33.7653 46.5633C32.4047 45.9764 31.2443 45.1761 30.284 44.1624C29.3503 43.1487 28.63 41.9883 28.1232 40.6811C27.6163 39.374 27.3629 38.0002 27.3629 36.5596C27.3629 35.0924 27.6163 33.7052 28.1232 32.3981C28.63 31.0909 29.3503 29.9305 30.284 28.9168C31.2443 27.9031 32.4047 27.1162 33.7653 26.5559C35.1258 25.9691 36.6597 25.6756 38.3669 25.6756C40.0742 25.6756 41.5948 25.9691 42.9286 26.5559C44.2891 27.1162 45.4496 27.9031 46.4099 28.9168C47.3703 29.9305 48.0905 31.0909 48.5707 32.3981C49.0776 33.7052 49.331 35.0924 49.331 36.5596C49.331 38.0002 49.0776 39.374 48.5707 40.6811C48.0905 41.9883 47.3703 43.1487 46.4099 44.1624C45.4762 45.1761 44.3291 45.9764 42.9686 46.5633C41.6081 47.1235 40.0742 47.4036 38.3669 47.4036ZM32.8849 36.5596C32.8849 37.7868 33.125 38.8805 33.6052 39.8408C34.0854 40.7745 34.7389 41.5081 35.5659 42.0417C36.3929 42.5752 37.3266 42.8419 38.3669 42.8419C39.3807 42.8419 40.301 42.5752 41.128 42.0417C41.9549 41.4814 42.6085 40.7345 43.0887 39.8008C43.5955 38.8405 43.849 37.7467 43.849 36.5196C43.849 35.3192 43.5955 34.2388 43.0887 33.2784C42.6085 32.3181 41.9549 31.5711 41.128 31.0376C40.301 30.5041 39.3807 30.2373 38.3669 30.2373C37.3266 30.2373 36.3929 30.5174 35.5659 31.0776C34.7389 31.6111 34.0854 32.3581 33.6052 33.3184C33.125 34.2521 32.8849 35.3325 32.8849 36.5596ZM50.5092 17.7927H55.8712V40.281C55.8712 41.2414 56.0313 41.8949 56.3514 42.2417C56.6715 42.5618 57.1117 42.7219 57.6719 42.7219C58.0987 42.7219 58.5389 42.6685 58.9924 42.5618C59.4459 42.4551 59.846 42.3218 60.1928 42.1617L60.9131 46.2432C60.1928 46.59 59.3525 46.8568 58.3921 47.0435C57.4318 47.2302 56.5648 47.3236 55.7912 47.3236C54.1106 47.3236 52.8034 46.8834 51.8697 46.0031C50.9627 45.0961 50.5092 43.8156 50.5092 42.1617V17.7927ZM59.4078 40.8012C59.4078 39.4407 59.7813 38.2536 60.5282 37.2399C61.3019 36.1995 62.3689 35.3992 63.7294 34.839C65.0899 34.2788 66.6505 33.9987 68.4111 33.9987C69.2915 33.9987 70.1851 34.0654 71.0921 34.1988C71.9991 34.3321 72.7861 34.5456 73.453 34.839V33.7186C73.453 32.3848 73.0528 31.3577 72.2526 30.6374C71.4789 29.9172 70.3185 29.5571 68.7713 29.5571C67.6242 29.5571 66.5304 29.7571 65.4901 30.1573C64.4497 30.5574 63.3559 31.1443 62.2089 31.9179L60.4882 28.3966C61.8754 27.4896 63.2893 26.8094 64.7298 26.3559C66.197 25.9024 67.7309 25.6756 69.3315 25.6756C72.3192 25.6756 74.6401 26.4226 76.294 27.9164C77.9747 29.4103 78.815 31.5445 78.815 34.3188V41.0013C78.815 41.5615 78.9083 41.9616 79.0951 42.2017C79.3085 42.4418 79.6419 42.5885 80.0954 42.6419V47.0035C79.6153 47.0835 79.1751 47.1502 78.775 47.2036C78.4015 47.2569 78.0814 47.2836 77.8146 47.2836C76.7475 47.2836 75.9339 47.0435 75.3737 46.5633C74.8402 46.0831 74.5067 45.4963 74.3733 44.8027L74.2533 43.7223C73.3463 44.896 72.2125 45.803 70.852 46.4433C69.4915 47.0835 68.1044 47.4036 66.6905 47.4036C65.3033 47.4036 64.0495 47.1235 62.9291 46.5633C61.8354 45.9764 60.9684 45.1895 60.3282 44.2024C59.7146 43.1887 59.4078 42.055 59.4078 40.8012ZM72.4526 41.8816C72.7461 41.5615 72.9862 41.2414 73.1729 40.9212C73.3596 40.6011 73.453 40.3077 73.453 40.0409V37.9201C72.8128 37.6534 72.1192 37.4533 71.3722 37.3199C70.6253 37.1599 69.9184 37.0798 69.2514 37.0798C67.8643 37.0798 66.7172 37.3866 65.8102 38.0002C64.9299 38.587 64.4897 39.374 64.4897 40.361C64.4897 40.8946 64.6364 41.4014 64.9299 41.8816C65.2233 42.3618 65.6501 42.7486 66.2103 43.042C66.7705 43.3355 67.4374 43.4822 68.2111 43.4822C69.0114 43.4822 69.7983 43.3355 70.5719 43.042C71.3456 42.7219 71.9724 42.3351 72.4526 41.8816ZM100.912 47.0035H95.5499V35.2391C95.5499 33.5585 95.2564 32.3314 94.6696 31.5578C94.0827 30.7842 93.269 30.3974 92.2287 30.3974C91.5084 30.3974 90.7748 30.5841 90.0278 30.9576C89.3076 31.331 88.654 31.8512 88.0671 32.5181C87.4802 33.1584 87.0534 33.9053 86.7867 34.759V47.0035H81.4247V26.0358H86.2665V29.9172C86.8 29.0102 87.4802 28.2499 88.3072 27.6363C89.1342 26.9961 90.0812 26.5159 91.1483 26.1958C92.242 25.849 93.3891 25.6756 94.5895 25.6756C95.8967 25.6756 96.9637 25.9157 97.7907 26.3959C98.6444 26.8494 99.2846 27.4763 99.7114 28.2766C100.165 29.0502 100.472 29.9305 100.632 30.9176C100.818 31.9046 100.912 32.905 100.912 33.9187V47.0035Z" fill="#FBFBFB"/>
<defs>
<linearGradient id="paint0_linear_109_199" x1="118.901" y1="11.1378" x2="81.5455" y2="48.9663" gradientUnits="userSpaceOnUse">
<stop stop-color="white"/>
<stop offset="1" stop-color="#F5F5F5"/>
</linearGradient>
<linearGradient id="paint1_linear_109_199" x1="120.301" y1="23.7115" x2="101.308" y2="42.6954" gradientUnits="userSpaceOnUse">
<stop stop-color="#02182B"/>
<stop offset="1" stop-color="#02182B" stop-opacity="0"/>
</linearGradient>
</defs>
</svg>
